<?xml version="1.0" standalone="no"?>
<!DOCTYPE svg PUBLIC "-//W3C//DTD SVG 20010904//EN"
 "http://www.w3.org/TR/2001/REC-SVG-20010904/DTD/svg10.dtd">
<svg version="1.0" xmlns="http://www.w3.org/2000/svg"
 width="1280.000000pt" height="1280.000000pt" viewBox="0 0 1280.000000 1280.000000"
 preserveAspectRatio="xMidYMid meet">
<g transform="translate(0.000000,1280.000000) scale(0.100000,-0.100000)"
fill="#000000" stroke="none">
<path d="M6480 10984 c-274 -25 -572 -95 -721 -169 -79 -39 -154 -99 -187
-148 -25 -35 -39 -45 -80 -56 -86 -21 -262 -115 -337 -178 -133 -111 -219
-257 -251 -420 -46 -243 -16 -718 82 -1271 19 -108 46 -264 60 -347 48 -283
103 -461 214 -690 74 -153 170 -305 273 -433 l67 -83 0 -162 c0 -161 -1 -162
-26 -186 -14 -14 -52 -57 -84 -95 -84 -102 -239 -214 -475 -345 -164 -90 -343
-166 -726 -305 -423 -153 -538 -199 -704 -281 -333 -164 -481 -309 -558 -550
-65 -201 -69 -368 -17 -562 54 -199 197 -452 414 -733 520 -672 1076 -1106
1828 -1426 471 -201 881 -276 1428 -260 480 13 790 80 1217 262 736 314 1263
719 1777 1364 217 272 374 533 440 732 60 179 72 336 37 503 -67 324 -215 488
-614 680 -176 85 -274 124 -677 270 -360 130 -489 184 -690 285 -215 109 -398
220 -472 287 -87 77 -171 141 -202 153 l-26 10 0 161 0 161 58 66 c247 283
419 631 507 1027 13 61 40 157 60 215 109 314 162 712 136 1011 -34 399 -156
702 -396 988 -224 266 -532 441 -885 502 -111 19 -372 32 -470 23z m1607
-2206 c-2 -24 -4 -7 -4 37 0 44 2 63 4 43 2 -21 2 -57 0 -80z"/>
</g>
</svg>
